<svg width="68" height="44" viewBox="0 0 68 44" fill="none" xmlns="http://www.w3.org/2000/svg">
<g clip-path="url(#clip0_4_237)">
<path d="M41.99 0.0700073C41.4273 1.07779 40.9258 2.11856 40.4883 3.18667C36.1895 2.50682 31.8105 2.50682 27.5117 3.18667C27.0742 2.11856 26.5727 1.07779 26.01 0.0700073C21.9606 0.76191 18.024 2.00103 14.3083 3.75334C7.66401 13.3422 4.65075 24.9834 5.80834 36.5917C10.1383 39.8468 14.9981 42.3294 20.1733 43.93C21.3518 42.3734 22.4035 40.7248 23.3183 39C21.6299 38.3775 20.007 37.5898 18.4733 36.6483C18.894 36.3685 19.2919 36.0558 19.6633 35.7133C24.1356 37.8676 29.0359 38.9862 34 38.9862C38.9641 38.9862 43.8644 37.8676 48.3367 35.7133C48.7333 36.0533 49.13 36.365 49.5267 36.6483C47.9847 37.5823 46.3634 38.3787 44.6817 39.0283C45.5586 40.7922 46.5822 42.4792 47.7417 44.0717C52.9104 42.4766 57.7618 39.9933 62.0783 36.7333C63.2637 25.1229 60.248 13.4722 53.5783 3.89501C49.9044 2.10643 46.0067 0.819907 41.99 0.0700073ZM24.5933 29.9617C23.1755 29.8599 21.8522 29.2128 20.9013 28.1562C19.9504 27.0996 19.4457 25.7157 19.4933 24.295C19.4385 22.8724 19.9407 21.4846 20.893 20.4264C21.8454 19.3682 23.1729 18.7232 24.5933 18.6283C26.0138 18.7232 27.3413 19.3682 28.2936 20.4264C29.246 21.4846 29.7481 22.8724 29.6933 24.295C29.7481 25.7176 29.246 27.1054 28.2936 28.1636C27.3413 29.2218 26.0138 29.8668 24.5933 29.9617ZM43.4067 29.9617C41.9888 29.8599 40.6655 29.2128 39.7146 28.1562C38.7637 27.0996 38.2591 25.7157 38.3067 24.295C38.2519 22.8724 38.754 21.4846 39.7064 20.4264C40.6587 19.3682 41.9862 18.7232 43.4067 18.6283C44.8298 18.7161 46.1615 19.3591 47.1154 20.4189C48.0692 21.4787 48.5688 22.8706 48.5067 24.295C48.5688 25.7195 48.0692 27.1114 47.1154 28.1712C46.1615 29.231 44.8298 29.8739 43.4067 29.9617Z" fill="white"/>
</g>
<defs>
<clipPath id="clip0_4_237">
<rect width="68" height="44" fill="white"/>
</clipPath>
</defs>
</svg>
