<svg width="46" height="47" viewBox="0 0 46 47" fill="none" xmlns="http://www.w3.org/2000/svg">
<g clip-path="url(#clip0_4_244)">
<path d="M22.9974 11.6515C19.9236 11.6515 16.9757 12.8726 14.8022 15.046C12.6288 17.2195 11.4077 20.1674 11.4077 23.2412C11.4077 26.3149 12.6288 29.2628 14.8022 31.4363C16.9757 33.6098 19.9236 34.8308 22.9974 34.8308C26.0711 34.8308 29.019 33.6098 31.1925 31.4363C33.3659 29.2628 34.587 26.3149 34.587 23.2412C34.587 20.1674 33.3659 17.2195 31.1925 15.046C29.019 12.8726 26.0711 11.6515 22.9974 11.6515ZM22.9974 30.7679C21.0005 30.7679 19.0854 29.9746 17.6734 28.5626C16.2614 27.1506 15.4681 25.2355 15.4681 23.2387C15.4681 21.2418 16.2614 19.3267 17.6734 17.9147C19.0854 16.5027 21.0005 15.7094 22.9974 15.7094C24.9942 15.7094 26.9093 16.5027 28.3213 17.9147C29.7334 19.3267 30.5266 21.2418 30.5266 23.2387C30.5266 25.2355 29.7334 27.1506 28.3213 28.5626C26.9093 29.9746 24.9942 30.7679 22.9974 30.7679Z" fill="white"/>
<path d="M35.0459 13.9273C36.5381 13.9273 37.7478 12.7176 37.7478 11.2254C37.7478 9.73319 36.5381 8.52351 35.0459 8.52351C33.5537 8.52351 32.344 9.73319 32.344 11.2254C32.344 12.7176 33.5537 13.9273 35.0459 13.9273Z" fill="white"/>
<path d="M44.3871 8.4784C43.8069 6.98002 42.9202 5.61929 41.7838 4.48333C40.6474 3.34736 39.2864 2.46119 37.7878 1.88153C36.0341 1.22324 34.1815 0.867286 32.3088 0.828835C29.8951 0.723566 29.1306 0.693489 23.01 0.693489C16.8893 0.693489 16.1048 0.693489 13.7112 0.828835C11.8399 0.86532 9.98856 1.22134 8.23719 1.88153C6.7382 2.46051 5.37678 3.34645 4.2403 4.4825C3.10382 5.61855 2.21736 6.97963 1.63781 8.4784C0.979388 10.2319 0.624255 12.0847 0.587625 13.9574C0.479849 16.3686 0.447266 17.133 0.447266 23.2562C0.447266 29.3768 0.447266 30.1563 0.587625 32.555C0.625221 34.4298 0.978624 36.2795 1.63781 38.0365C2.21899 39.5347 3.10631 40.8953 4.24306 42.0311C5.37982 43.167 6.74102 44.0533 8.23969 44.6334C9.98775 45.3181 11.8398 45.6995 13.7162 45.7612C16.1299 45.8665 16.8943 45.8991 23.015 45.8991C29.1356 45.8991 29.9201 45.8991 32.3138 45.7612C34.1863 45.7232 36.0389 45.3681 37.7928 44.7111C39.291 44.13 40.6516 43.2431 41.7879 42.1068C42.9242 40.9706 43.8111 39.6099 44.3922 38.1117C45.0513 36.3572 45.4047 34.5075 45.4423 32.6327C45.5501 30.2215 45.5827 29.4571 45.5827 23.3339C45.5827 17.2107 45.5827 16.4337 45.4423 14.0351C45.4132 12.1359 45.0562 10.2561 44.3871 8.4784ZM41.3343 32.3695C41.3182 33.814 41.0545 35.2449 40.5548 36.6003C40.1784 37.575 39.6022 38.4601 38.8632 39.1987C38.1242 39.9372 37.2388 40.513 36.2639 40.8888C34.9235 41.3862 33.5077 41.6498 32.0782 41.6683C29.6971 41.7786 29.0254 41.8061 22.9197 41.8061C16.8091 41.8061 16.185 41.8061 13.7588 41.6683C12.33 41.6508 10.9148 41.3871 9.57561 40.8888C8.59733 40.5153 7.70834 39.9406 6.96616 39.2019C6.22398 38.4631 5.64515 37.5769 5.26709 36.6003C4.77445 35.2595 4.51094 33.8454 4.4876 32.4171C4.37982 30.036 4.35476 29.3643 4.35476 23.2587C4.35476 17.1506 4.35476 16.5265 4.4876 14.0978C4.5038 12.6541 4.76745 11.224 5.26709 9.86946C6.03155 7.8919 7.59805 6.33542 9.57561 5.57848C10.9155 5.08256 12.3302 4.81895 13.7588 4.79899C16.1424 4.69121 16.8116 4.66114 22.9197 4.66114C29.0279 4.66114 29.6545 4.66114 32.0782 4.79899C33.5078 4.81619 34.9238 5.07988 36.2639 5.57848C37.2387 5.95513 38.124 6.53142 38.8629 7.27038C39.6019 8.00934 40.1782 8.89464 40.5548 9.86946C41.0475 11.2103 41.311 12.6244 41.3343 14.0527C41.4421 16.4363 41.4697 17.1055 41.4697 23.2136C41.4697 29.3192 41.4697 29.9759 41.3619 32.372H41.3343V32.3695Z" fill="white"/>
</g>
<defs>
<clipPath id="clip0_4_244">
<rect width="46" height="46" fill="white" transform="translate(0 0.238647)"/>
</clipPath>
</defs>
</svg>
