<svg width="66" height="50" viewBox="0 0 66 50" fill="none" xmlns="http://www.w3.org/2000/svg">
<g clip-path="url(#clip0_4_239)">
<path d="M13.9933 11.713C17.3164 11.713 20.0103 9.00304 20.0103 5.66014C20.0103 2.31723 17.3164 -0.392731 13.9933 -0.392731C10.6702 -0.392731 7.97632 2.31723 7.97632 5.66014C7.97632 9.00304 10.6702 11.713 13.9933 11.713Z" fill="white"/>
<path d="M25.6918 16.2997V49.8809H36.0565V33.2743C36.0565 28.8923 36.876 24.6487 42.277 24.6487C47.6038 24.6487 47.6698 29.6586 47.6698 33.5509V49.8837H58.04V31.4678C58.04 22.4217 56.104 15.4698 45.5935 15.4698C40.5473 15.4698 37.1648 18.2555 35.7815 20.8919H35.6413V16.2997H25.6918ZM8.80127 16.2997H19.1825V49.8809H8.80127V16.2997Z" fill="white"/>
</g>
<defs>
<clipPath id="clip0_4_239">
<rect width="66" height="50" fill="white"/>
</clipPath>
</defs>
</svg>
